<?xml version="1.0" encoding="utf-8"?>
<!-- Generator: Adobe Illustrator 17.0.0, SVG Export Plug-In . SVG Version: 6.00 Build 0)  -->
<!DOCTYPE svg PUBLIC "-//W3C//DTD SVG 1.1//EN" "http://www.w3.org/Graphics/SVG/1.1/DTD/svg11.dtd">
<svg version="1.1" id="Layer_1" xmlns="http://www.w3.org/2000/svg" xmlns:xlink="http://www.w3.org/1999/xlink" x="0px" y="0px"
	 width="271.448px" height="499.759px" viewBox="0 0 271.448 499.759" enable-background="new 0 0 271.448 499.759"
	 xml:space="preserve">
<rect x="-5.197" y="-6.063" display="none" fill="#3292CC" width="541.333" height="511.019"/>
<path fill="#25B459" d="M62.379,499.759c2.516-12.569,8.549-33.92,16.777-46.157c10.787-16.173,34.622-27.134,34.998-32.451
	c0.377-5.281,4.564-16.521,6.14-19.912c1.605-3.468,9.21-11.157,12.057-15.86c2.818-4.625,6.627-9.258,6.027-12.14
	c-0.6-2.784-9.614-2.582-4.507-13.473c5.08-10.87,10.787-16.096,11.164-21.071c0.376-5.037,4.255-20.911,6.153-24.322
	c1.508-2.652,8.75-10.201,11.472-15.838l-0.014-0.007c4.535-9.412-12.992-18.873-9.085-26.988
	c2.261-4.618,5.164-16.466,4.298-22.083c-0.864-5.659-9.712,0.216-10.591-4.836c-0.865-4.974-1.953-19.648,0.266-25.614
	c2.246-5.874,5.107-10.904,3.292-15.88c-1.813-5.017-26.946-50.299-29.722-53.425c-2.749-3.181-3.308-10.061-4.564-12.859
	c-1.242-2.839-4.674-0.99-11.456-7.346c-6.825-6.287-17.653-18.266-16.327-26.415c1.339-8.122-0.697-21.581-5.303-25.364
	c-4.703-3.774-16.09-15.788-16.494-7.995c-0.404,7.815-1.13,15.957-5.443,11.792c-4.311-4.075-15.14-15.463-15.084-21.658
	c0.069-6.293,0.642-29.102-3.684-33.204c-4.383-4.067-12.072-10.444-12.029-13.249C30.74,11.429,29.065,4.744,27.105,0H0v499.759
	H62.379z"/>
<text transform="matrix(1 0 0 1 72.5732 210.124)" display="none" fill="#FFFFFF" font-family="'OpenSans-Bold'" font-size="15.5904">Brisbane</text>
<text transform="matrix(1 0 0 1 20.9999 430.7119)" display="none" fill="#FFFFFF" font-family="'OpenSans-Bold'" font-size="15.5904">Sydney</text>
<ellipse display="none" fill="#004C7C" cx="140.632" cy="270.16" rx="9.667" ry="4.112"/>
<ellipse display="none" fill="#FFFFFF" cx="140.724" cy="269.674" rx="5.827" ry="2.478"/>
<path display="none" fill="#004C7C" d="M140.724,270.382c0,0-1.25-7.722-3.928-9.998c-4.687-4.731-0.759-11.977,3.928-11.903
	C140.724,259.178,140.724,270.382,140.724,270.382z"/>
<path display="none" fill="#004C7C" d="M140.724,270.365c0,0,1.25-7.722,3.928-9.998c4.687-4.731,0.759-11.977-3.928-11.903
	C140.724,259.161,140.724,259.161,140.724,270.365z"/>
<text transform="matrix(1 0 0 1 18 265.8114)" display="none"><tspan x="0" y="0" display="inline" fill="#FFFFFF" font-family="'OpenSans-Light'" font-size="20.0731">BOX</tspan><tspan x="38.725" y="0" display="inline" fill="#FFFFFF" font-family="'OpenSans-Light'" font-size="8.702"> </tspan><tspan x="40.985" y="0" display="inline" fill="#FFFFFF" font-family="'OpenSans-Semibold'" font-size="20.0731">freight</tspan></text>
<polygon display="none" fill="#004C7C" points="140.399,267.638 140.724,270.16 141.129,267.261 141.815,261.021 141.506,248.85 
	140.724,248.464 139.912,249.691 139.448,258.366 "/>
<circle display="none" fill-rule="evenodd" clip-rule="evenodd" fill="#FFFFFF" cx="130.533" cy="227.36" r="11.693"/>
<circle display="none" fill-rule="evenodd" clip-rule="evenodd" fill="#25B459" cx="130.533" cy="227.36" r="8.538"/>
<circle display="none" fill-rule="evenodd" clip-rule="evenodd" fill="#FFFFFF" cx="130.533" cy="227.36" r="5.282"/>
<circle display="none" fill-rule="evenodd" clip-rule="evenodd" fill="#FFFFFF" cx="61.013" cy="450.389" r="11.693"/>
<circle display="none" fill-rule="evenodd" clip-rule="evenodd" fill="#25B459" cx="61.013" cy="450.389" r="8.538"/>
<circle display="none" fill-rule="evenodd" clip-rule="evenodd" fill="#FFFFFF" cx="61.013" cy="450.389" r="5.282"/>
<g display="none">
	<g display="inline">
		<path fill="#FFFFFF" d="M142.138,246.689c-4.698,0-8.506,3.808-8.506,8.498c0,4.69,7.948,17.466,7.948,17.466
			c0.309,0.508,0.81,0.508,1.115,0c0,0,7.944-12.772,7.944-17.466C150.64,250.494,146.836,246.689,142.138,246.689z
			 M142.138,259.897c-3.075,0-5.561-2.49-5.561-5.561s2.486-5.565,5.561-5.565c3.075,0,5.561,2.49,5.561,5.561
			S145.212,259.897,142.138,259.897z"/>
		<ellipse fill="#FFFFFF" cx="142.138" cy="254.336" rx="3.487" ry="3.487"/>
	</g>
</g>
</svg>
